<svg width="409" height="302" viewBox="0 0 409 302" fill="none" xmlns="http://www.w3.org/2000/svg">
<g clip-path="url(#clip0_37178_79389)">
<path d="M12.0404 11.4756C15.152 11.4756 17.6745 8.90666 17.6745 5.73778C17.6745 2.56889 15.152 0 12.0404 0C8.92874 0 6.40625 2.56889 6.40625 5.73778C6.40625 8.90666 8.92874 11.4756 12.0404 11.4756Z" fill="white"/>
<path d="M31.5033 11.4756C34.6149 11.4756 37.1374 8.90666 37.1374 5.73778C37.1374 2.56889 34.6149 0 31.5033 0C28.3916 0 25.8691 2.56889 25.8691 5.73778C25.8691 8.90666 28.3916 11.4756 31.5033 11.4756Z" fill="white"/>
<path d="M50.9662 11.4756C54.0778 11.4756 56.6003 8.90666 56.6003 5.73778C56.6003 2.56889 54.0778 0 50.9662 0C47.8545 0 45.332 2.56889 45.332 5.73778C45.332 8.90666 47.8545 11.4756 50.9662 11.4756Z" fill="white"/>
<path d="M396.825 3.5092H382.999C382.721 3.5092 382.454 3.39926 382.258 3.20359C382.062 3.00791 381.951 2.74251 381.951 2.46578C381.951 2.18905 382.062 1.92365 382.258 1.72797C382.454 1.53229 382.721 1.42236 382.999 1.42236H396.825C397.103 1.42236 397.37 1.53229 397.566 1.72797C397.762 1.92365 397.873 2.18905 397.873 2.46578C397.873 2.74251 397.762 3.00791 397.566 3.20359C397.37 3.39926 397.103 3.5092 396.825 3.5092Z" fill="white"/>
<path d="M396.825 7.4218H382.999C382.721 7.4218 382.454 7.31186 382.258 7.11618C382.062 6.92051 381.951 6.65511 381.951 6.37838C381.951 6.10165 382.062 5.83625 382.258 5.64057C382.454 5.44489 382.721 5.33496 382.999 5.33496H396.825C397.103 5.33496 397.37 5.44489 397.566 5.64057C397.762 5.83625 397.873 6.10165 397.873 6.37838C397.873 6.65511 397.762 6.92051 397.566 7.11618C397.37 7.31186 397.103 7.4218 396.825 7.4218Z" fill="white"/>
<path d="M396.825 11.3337H382.999C382.721 11.3337 382.454 11.2237 382.258 11.0281C382.062 10.8324 381.951 10.567 381.951 10.2902C381.951 10.0135 382.062 9.74812 382.258 9.55244C382.454 9.35676 382.721 9.24683 382.999 9.24683H396.825C397.103 9.24683 397.37 9.35676 397.566 9.55244C397.762 9.74812 397.873 10.0135 397.873 10.2902C397.873 10.567 397.762 10.8324 397.566 11.0281C397.37 11.2237 397.103 11.3337 396.825 11.3337Z" fill="white"/>
<path d="M220.856 101.767C222.076 102.468 223.09 103.475 223.799 104.687C224.508 105.899 224.887 107.274 224.898 108.677C224.91 110.08 224.553 111.461 223.864 112.685C223.175 113.908 222.177 114.931 220.969 115.652C219.761 116.373 218.385 116.767 216.977 116.795C215.57 116.824 214.179 116.485 212.942 115.814C211.706 115.142 210.667 114.16 209.929 112.966C209.191 111.771 208.778 110.406 208.733 109.004L208.729 108.742L208.733 108.481C208.778 107.09 209.184 105.735 209.912 104.547C210.64 103.359 211.664 102.379 212.885 101.702C214.106 101.026 215.482 100.677 216.879 100.688C218.276 100.699 219.646 101.071 220.856 101.767ZM219.401 110.581C219.325 110.507 219.235 110.449 219.137 110.409C219.039 110.37 218.933 110.35 218.827 110.351C218.721 110.352 218.616 110.374 218.518 110.416C218.421 110.457 218.332 110.517 218.258 110.593C218.07 110.784 217.845 110.936 217.597 111.04C217.349 111.144 217.083 111.197 216.814 111.197C216.545 111.197 216.278 111.144 216.03 111.04C215.782 110.936 215.558 110.784 215.37 110.593C215.22 110.44 215.015 110.353 214.8 110.351C214.586 110.349 214.38 110.432 214.226 110.581C214.073 110.731 213.986 110.935 213.984 111.148C213.982 111.362 214.065 111.568 214.215 111.72C214.554 112.065 214.958 112.338 215.404 112.525C215.851 112.712 216.33 112.808 216.814 112.808C217.298 112.808 217.777 112.712 218.223 112.525C218.669 112.338 219.073 112.065 219.412 111.72C219.487 111.645 219.545 111.555 219.585 111.457C219.624 111.359 219.644 111.254 219.643 111.148C219.642 111.043 219.62 110.938 219.579 110.841C219.537 110.744 219.477 110.655 219.401 110.581ZM214.396 106.324L214.294 106.329C214.089 106.352 213.9 106.453 213.766 106.611C213.633 106.768 213.566 106.971 213.578 107.177C213.59 107.382 213.681 107.576 213.832 107.717C213.983 107.858 214.182 107.936 214.389 107.935L214.491 107.929C214.697 107.906 214.886 107.805 215.019 107.647C215.152 107.49 215.219 107.287 215.207 107.082C215.195 106.876 215.104 106.683 214.954 106.542C214.803 106.401 214.603 106.323 214.396 106.324ZM219.247 106.324L219.145 106.329C218.939 106.352 218.751 106.453 218.617 106.611C218.484 106.768 218.417 106.971 218.429 107.177C218.441 107.382 218.532 107.576 218.683 107.717C218.833 107.858 219.033 107.936 219.24 107.935L219.342 107.929C219.548 107.906 219.736 107.805 219.87 107.647C220.003 107.49 220.07 107.287 220.058 107.082C220.046 106.876 219.955 106.683 219.804 106.542C219.654 106.401 219.454 106.323 219.247 106.324Z" fill="#B6DBF6"/>
<path d="M306.785 261.315L306.647 261.308H299.838C299.632 261.309 299.432 261.234 299.277 261.098C299.122 260.963 299.022 260.775 298.996 260.571L298.989 260.472V252.472C298.99 252.325 299.031 252.18 299.105 252.053C299.18 251.926 299.287 251.82 299.415 251.747C299.777 251.543 300.082 251.252 300.304 250.902C300.525 250.551 300.656 250.152 300.685 249.738L300.692 249.57V248.728C300.693 248.396 300.761 248.068 300.89 247.762C301.019 247.456 301.208 247.178 301.445 246.945C301.682 246.711 301.962 246.526 302.271 246.401C302.58 246.275 302.91 246.212 303.244 246.213C303.892 246.21 304.516 246.454 304.99 246.894C305.464 247.335 305.751 247.939 305.792 248.583L305.796 248.728V252.084H307.499C308.121 252.082 308.723 252.307 309.191 252.717C309.658 253.127 309.958 253.693 310.035 254.309L310.048 254.454L310.051 254.6L310.035 254.765L309.178 258.985C308.858 260.338 307.914 261.316 306.815 261.316L306.785 261.315ZM296.591 261.308C296.165 261.311 295.753 261.153 295.438 260.866C295.123 260.579 294.929 260.183 294.895 259.759L294.889 259.634V253.762C294.891 253.336 295.054 252.927 295.347 252.617C295.639 252.306 296.038 252.116 296.464 252.087L296.591 252.084H297.444C297.652 252.083 297.852 252.158 298.007 252.295C298.163 252.431 298.262 252.62 298.287 252.825L298.295 252.922V260.47C298.293 260.676 298.216 260.875 298.077 261.029C297.939 261.182 297.748 261.28 297.542 261.303L297.444 261.306L296.591 261.308Z" fill="#B6DBF6"/>
<path d="M274.963 257.849C251.884 257.849 226.805 254.432 201.895 247.862C171.089 239.738 142.844 227.475 120.213 212.398L120.883 211.4C143.407 226.403 171.525 238.61 202.203 246.7C229.927 254.013 257.857 257.4 282.967 256.506L283.01 257.707C280.358 257.802 277.676 257.849 274.963 257.849Z" fill="white"/>
<path d="M271.508 101.802C264.012 99.3705 256.304 97.1067 248.594 95.0734C204.228 83.3724 160.616 79.2181 122.471 83.0619L122.35 81.8665C160.637 78.0105 204.398 82.1724 248.902 93.9122C256.632 95.9521 264.365 98.2215 271.882 100.66L271.508 101.802Z" fill="white"/>
<path d="M68.2101 195.278C49.7187 177.143 41.9084 158.224 46.2182 142.006C51.7469 121.194 76.3188 106.804 113.629 102.526L113.766 103.72C76.9751 107.938 52.7809 122.005 47.3864 142.314C43.1922 158.097 50.8889 176.603 69.0583 194.422L68.2101 195.278Z" fill="white"/>
<path d="M318.995 250.395L318.609 249.257C339.249 242.304 352.159 231.105 355.943 216.868C360.752 198.77 350.304 177.768 326.522 157.731C302.619 137.592 268.15 120.882 229.463 110.679L229.77 109.518C268.624 119.765 303.262 136.562 327.298 156.814C351.455 177.167 362.042 198.604 357.106 217.176C353.217 231.821 340.038 243.308 318.995 250.395Z" fill="white"/>
<path d="M113.743 253.765C68.3949 233.728 33.4505 207.734 15.3477 180.569L16.3526 179.906C34.33 206.884 69.0906 232.723 114.231 252.669L113.743 253.765Z" fill="white"/>
<path d="M293.877 201.524C296.541 201.524 298.701 199.373 298.701 196.718C298.701 194.064 296.541 191.912 293.877 191.912C291.213 191.912 289.053 194.064 289.053 196.718C289.053 199.373 291.213 201.524 293.877 201.524Z" fill="#E6E6E6"/>
<path d="M204.113 68.2205C206.778 68.2205 208.938 66.0687 208.938 63.4144C208.938 60.7601 206.778 58.6084 204.113 58.6084C201.449 58.6084 199.289 60.7601 199.289 63.4144C199.289 66.0687 201.449 68.2205 204.113 68.2205Z" fill="#E6E6E6"/>
<path d="M103.024 247.765C103.024 248.989 103.064 250.213 103.15 251.425C103.241 252.875 103.398 254.314 103.611 255.744C104.324 260.558 105.687 265.254 107.664 269.704L107.967 270.367L108.12 270.699C108.171 270.81 108.226 270.921 108.277 271.027C108.347 271.173 108.413 271.314 108.482 271.455C108.568 271.631 108.654 271.807 108.744 271.983C108.754 272.003 108.764 272.028 108.779 272.053C108.855 272.206 108.926 272.35 109.007 272.502C109.022 272.535 109.039 272.567 109.058 272.598C109.144 272.769 109.235 272.945 109.326 273.116C109.428 273.297 109.523 273.484 109.624 273.665C109.866 274.113 110.119 274.556 110.377 274.999C110.452 275.13 110.53 275.261 110.609 275.392C110.68 275.513 110.75 275.633 110.826 275.754C110.877 275.835 110.929 275.921 110.98 276.001C111.061 276.137 111.141 276.268 111.227 276.404C111.414 276.701 111.606 276.998 111.794 277.295H111.799C111.885 277.431 111.976 277.567 112.066 277.698V277.703C112.334 278.106 112.612 278.508 112.89 278.906C112.892 278.906 112.893 278.907 112.894 278.907C112.895 278.908 112.895 278.91 112.895 278.911C113.117 279.233 113.35 279.545 113.578 279.858V279.863C113.731 280.059 113.876 280.261 114.028 280.457C114.149 280.618 114.275 280.784 114.401 280.945C114.426 280.981 114.457 281.011 114.482 281.047V281.052C114.518 281.098 114.553 281.138 114.588 281.184C115.124 281.868 115.677 282.538 116.246 283.192L116.337 283.298C116.367 283.333 116.402 283.368 116.433 283.409C116.484 283.464 116.529 283.519 116.58 283.575C116.63 283.63 116.676 283.686 116.726 283.741C119.694 287.072 123.059 290.029 126.747 292.546C127.238 292.884 127.738 293.209 128.238 293.528C128.364 293.609 128.491 293.689 128.617 293.765C128.652 293.79 128.692 293.816 128.728 293.84C128.798 293.881 128.864 293.921 128.933 293.966C129.001 294.012 129.064 294.047 129.135 294.087C129.403 294.253 129.675 294.414 129.948 294.576C130.014 294.616 130.085 294.656 130.153 294.696C130.221 294.737 130.29 294.772 130.358 294.812C130.358 294.817 130.358 294.817 130.363 294.817H130.368V294.822H130.373C130.712 295.019 131.055 295.21 131.404 295.396C131.591 295.498 131.783 295.6 131.975 295.698C132.41 295.935 132.85 296.161 133.289 296.378C133.446 296.453 133.608 296.531 133.765 296.609C133.896 296.67 134.027 296.735 134.159 296.796C134.199 296.815 134.234 296.831 134.27 296.851C134.381 296.902 134.487 296.953 134.598 297.004C134.72 297.06 134.841 297.115 134.957 297.17C135.093 297.231 135.225 297.291 135.361 297.346C135.866 297.573 136.377 297.79 136.887 297.996C138.716 298.743 140.586 299.388 142.487 299.929C142.573 299.954 142.664 299.98 142.754 300.004C143.568 300.231 144.387 300.437 145.211 300.623C146.652 300.956 148.105 301.228 149.572 301.439H149.583L150.108 301.515C150.124 301.515 150.139 301.52 150.16 301.52C150.16 301.525 150.16 301.525 150.165 301.52L150.746 301.595C150.759 301.599 150.773 301.601 150.786 301.601C150.968 301.626 151.155 301.646 151.337 301.666L151.928 301.726L152.383 301.771C152.396 301.776 152.41 301.778 152.423 301.777C152.56 301.787 152.696 301.801 152.833 301.812H152.853L153.207 301.842C154.617 301.952 156.032 302.003 157.467 302.003C159.019 302.003 160.56 301.943 162.081 301.812H162.097L163.072 301.721C163.158 301.711 163.239 301.706 163.325 301.696C163.34 301.696 163.36 301.691 163.376 301.691C163.401 301.686 163.427 301.686 163.457 301.681C163.47 301.681 163.484 301.679 163.497 301.676C163.608 301.665 163.719 301.651 163.835 301.64L164.214 301.595C164.341 301.58 164.467 301.56 164.593 301.544C164.623 301.539 164.649 301.539 164.679 301.534C164.77 301.524 164.861 301.509 164.952 301.493L165.084 301.478C165.175 301.463 165.261 301.453 165.351 301.438H165.356C168.129 301.041 170.867 300.427 173.543 299.602C173.684 299.557 173.826 299.516 173.967 299.471C173.972 299.471 173.978 299.466 173.983 299.466C174.023 299.451 174.069 299.441 174.109 299.425C174.488 299.305 174.862 299.179 175.235 299.048C175.751 298.877 176.259 298.691 176.771 298.499C176.908 298.444 177.044 298.394 177.181 298.338C177.459 298.233 177.731 298.122 178.004 298.011C178.469 297.825 178.934 297.628 179.394 297.427C179.824 297.236 180.248 297.044 180.674 296.843C180.684 296.838 180.699 296.838 180.709 296.828C180.805 296.782 180.901 296.737 180.992 296.692H180.997C183.325 295.579 185.569 294.302 187.714 292.87C188.401 292.412 189.078 291.939 189.745 291.45C190.281 291.053 190.806 290.65 191.332 290.237C193.925 288.183 196.325 285.898 198.503 283.411V283.406C198.66 283.234 198.806 283.058 198.957 282.882C198.983 282.857 199.003 282.831 199.023 282.811C199.119 282.696 199.21 282.585 199.306 282.474V282.469C199.433 282.323 199.559 282.172 199.68 282.021C199.71 281.986 199.736 281.956 199.761 281.925V281.92C199.863 281.799 199.958 281.678 200.059 281.552C200.11 281.492 200.155 281.431 200.205 281.371V281.366C200.503 280.993 200.791 280.621 201.079 280.239C201.155 280.137 201.233 280.035 201.312 279.926C201.676 279.438 202.028 278.94 202.373 278.441V278.436C202.505 278.25 202.629 278.059 202.762 277.872L203.141 277.299C203.267 277.097 203.397 276.901 203.525 276.699L203.54 276.669C203.667 276.478 203.793 276.277 203.914 276.08C204.01 275.919 204.106 275.763 204.202 275.607C204.262 275.501 204.328 275.395 204.389 275.285C204.413 275.251 204.434 275.215 204.454 275.179L204.879 274.439C205.046 274.152 205.207 273.86 205.369 273.568C205.43 273.447 205.496 273.326 205.561 273.205C205.586 273.165 205.607 273.125 205.627 273.085C205.702 272.944 205.78 272.797 205.849 272.652C205.917 272.506 206.002 272.364 206.076 272.219C206.15 272.073 206.223 271.932 206.293 271.786C206.349 271.675 206.399 271.564 206.455 271.454C206.459 271.445 206.464 271.436 206.47 271.429C206.495 271.373 206.522 271.323 206.541 271.273C206.547 271.265 206.552 271.257 206.556 271.248C206.612 271.137 206.662 271.021 206.718 270.911C206.789 270.765 206.855 270.614 206.923 270.467C206.968 270.365 207.019 270.263 207.064 270.155C207.13 270.009 207.201 269.863 207.261 269.712C207.332 269.559 207.398 269.41 207.463 269.253C207.483 269.215 207.5 269.177 207.515 269.137C207.55 269.067 207.575 268.997 207.606 268.926C207.687 268.74 207.768 268.548 207.843 268.362C207.934 268.15 208.02 267.934 208.099 267.722C208.18 267.526 208.256 267.324 208.332 267.123L208.362 267.053C209.539 263.963 210.432 260.773 211.03 257.523V257.517C211.367 255.661 211.608 253.789 211.753 251.908C211.758 251.802 211.768 251.704 211.773 251.602C211.864 250.327 211.904 249.052 211.904 247.766C211.904 247.197 211.894 246.633 211.879 246.069C211.527 234.276 207.306 222.924 199.862 213.748C199.7 213.547 199.539 213.345 199.372 213.144C199.205 212.942 199.033 212.746 198.866 212.55C193.327 206.086 186.34 201.011 178.47 197.731C170.599 194.452 162.066 193.06 153.557 193.669C145.048 194.278 136.801 196.87 129.482 201.237C122.163 205.603 115.977 211.622 111.421 218.807C111.173 219.2 110.926 219.598 110.688 219.996C110.451 220.394 110.213 220.801 109.981 221.209C105.405 229.316 103.009 238.464 103.024 247.765Z" fill="#F2F2F2"/>
<path d="M136.043 218.006C136.003 217.999 135.963 217.993 135.924 217.986C136.091 217.883 136.249 217.765 136.394 217.633L136.043 218.006Z" fill="white"/>
<path d="M151.166 264.95H162.819L163.544 278.279L149.764 277.212L151.166 264.95Z" fill="#FFB9B9"/>
<path d="M128.668 293.913C129.191 294.197 129.72 294.47 130.249 294.729C130.437 294.819 130.632 294.91 130.82 295.007C130.978 295.08 131.136 295.16 131.294 295.232C131.345 295.256 131.385 295.274 131.428 295.298C131.561 295.359 131.689 295.42 131.823 295.48C131.969 295.547 132.115 295.613 132.254 295.68C132.419 295.752 132.577 295.825 132.741 295.892C133.349 296.164 133.963 296.425 134.577 296.673C136.778 297.572 139.027 298.349 141.314 298.999C141.417 299.029 141.527 299.06 141.636 299.09C142.615 299.362 143.601 299.61 144.592 299.835C146.325 300.235 148.074 300.562 149.839 300.816H149.852L150.484 300.907C150.502 300.907 150.52 300.913 150.545 300.913C150.545 300.919 150.545 300.919 150.551 300.913L151.25 301.004C151.267 301.009 151.284 301.011 151.301 301.01C151.52 301.041 151.745 301.065 151.964 301.089L152.676 301.162L153.223 301.216C153.239 301.222 153.255 301.224 153.272 301.222C153.436 301.235 153.6 301.252 153.764 301.265H153.789L154.214 301.301C155.911 301.434 157.613 301.495 159.34 301.495C161.207 301.495 163.061 301.422 164.891 301.265H164.91L166.083 301.155C166.185 301.143 166.284 301.137 166.387 301.125C166.405 301.125 166.429 301.119 166.448 301.119C166.478 301.113 166.509 301.113 166.545 301.107C166.562 301.108 166.578 301.106 166.594 301.101C166.727 301.089 166.861 301.071 167.003 301.059L167.459 301.004C167.613 300.986 167.763 300.962 167.916 300.943C167.952 300.937 167.983 300.937 168.018 300.931C168.127 300.919 168.237 300.901 168.346 300.88L168.504 300.862C168.614 300.843 168.717 300.832 168.827 300.811H168.833C172.169 300.332 175.463 299.593 178.683 298.6C178.854 298.545 179.024 298.498 179.195 298.442C178.41 294.795 176.794 291.376 174.471 288.45C172.148 285.524 169.182 283.169 165.8 281.567C166.636 280.773 167.215 279.747 167.46 278.623C167.618 277.898 167.63 277.149 167.497 276.419C167.363 275.689 167.086 274.993 166.682 274.37C165.893 273.163 164.655 272.318 163.24 272.02L154.23 270.142C152.78 269.86 151.276 270.16 150.047 270.977C148.817 271.794 147.961 273.061 147.664 274.503C147.572 274.946 147.531 275.397 147.542 275.848C138.859 281.61 132.614 287.577 128.668 293.913Z" fill="#B6DBF6"/>
<path d="M153.928 269.048C163.571 269.048 171.388 261.26 171.388 251.654C171.388 242.048 163.571 234.261 153.928 234.261C144.286 234.261 136.469 242.048 136.469 251.654C136.469 261.26 144.286 269.048 153.928 269.048Z" fill="#FFB9B9"/>
<path d="M143.047 266.649C141.185 265.382 139.284 262.948 138.015 261.123C136.333 258.724 135.175 256 134.618 253.128C134.06 250.255 134.114 247.297 134.778 244.447C134.989 243.307 135.509 242.246 136.281 241.379C137.103 240.568 138.446 240.184 139.45 240.758C139.176 240.027 139.055 239.248 139.095 238.469C139.135 237.69 139.335 236.927 139.683 236.228C140.388 234.833 141.41 233.62 142.668 232.686C145.074 230.841 147.936 229.679 150.951 229.323C153.966 228.968 157.021 229.432 159.793 230.667C160.883 231.17 159.092 227.282 160.234 227.658C161.367 228.095 162.628 228.073 163.746 227.596C164.821 227.058 168.378 230.257 167.966 229.132C168.781 229.5 169.489 230.068 170.024 230.782C170.559 231.497 170.904 232.335 171.026 233.217C171.149 234.1 171.045 235 170.725 235.832C170.405 236.665 169.878 237.403 169.195 237.978C168.294 238.736 167.169 239.172 166.182 239.814C164.454 241.025 163.23 242.826 162.743 244.874C162.256 246.923 162.538 249.079 163.536 250.934C162.498 250.27 161.359 249.777 160.163 249.474C159.564 249.328 158.937 249.327 158.337 249.471C157.737 249.615 157.179 249.9 156.712 250.301C156.321 250.747 156.026 251.267 155.844 251.831C155.663 252.394 155.599 252.989 155.656 253.577C155.695 254.758 155.977 255.921 156.009 257.101C156.101 260.565 157.964 267.151 155.268 268.992C153.138 270.447 145.588 268.38 143.047 266.649Z" fill="#2F2E41"/>
<path d="M406.009 128.953C406.009 130.177 405.969 131.401 405.883 132.613C405.792 134.063 405.635 135.503 405.422 136.933C404.709 141.747 403.346 146.443 401.369 150.893L401.066 151.556L400.913 151.889C400.861 151.999 400.807 152.11 400.756 152.216C400.685 152.362 400.619 152.503 400.551 152.644C400.465 152.82 400.379 152.996 400.289 153.173C400.278 153.193 400.269 153.218 400.253 153.243C400.178 153.396 400.107 153.54 400.026 153.691C400.011 153.724 399.994 153.756 399.975 153.787C399.889 153.959 399.798 154.135 399.707 154.306C399.605 154.487 399.51 154.674 399.409 154.855C399.167 155.303 398.914 155.746 398.656 156.189C398.58 156.32 398.503 156.45 398.424 156.581C398.353 156.702 398.282 156.823 398.207 156.944C398.156 157.025 398.104 157.11 398.053 157.191C397.972 157.327 397.891 157.458 397.805 157.594C397.619 157.891 397.427 158.188 397.239 158.485H397.234C397.148 158.621 397.057 158.756 396.966 158.888V158.893C396.699 159.296 396.421 159.698 396.143 160.096C396.141 160.096 396.14 160.096 396.139 160.097C396.138 160.098 396.138 160.099 396.138 160.101C395.915 160.423 395.683 160.735 395.455 161.047V161.052C395.302 161.249 395.157 161.45 395.005 161.647C394.884 161.808 394.757 161.974 394.631 162.135C394.606 162.17 394.575 162.2 394.55 162.237V162.242C394.515 162.288 394.479 162.328 394.444 162.373C393.908 163.058 393.356 163.728 392.787 164.382L392.695 164.488C392.665 164.523 392.63 164.558 392.599 164.598C392.548 164.654 392.503 164.709 392.453 164.765C392.403 164.82 392.357 164.875 392.306 164.931C389.338 168.262 385.973 171.219 382.285 173.736C381.795 174.073 381.295 174.399 380.794 174.718C380.668 174.798 380.542 174.879 380.416 174.954C380.38 174.979 380.34 175.005 380.304 175.03C380.234 175.07 380.168 175.111 380.1 175.156C380.032 175.201 379.968 175.236 379.898 175.277C379.63 175.443 379.357 175.604 379.084 175.765C379.019 175.806 378.947 175.846 378.879 175.886C378.811 175.926 378.743 175.962 378.675 176.002C378.675 176.007 378.675 176.007 378.669 176.007H378.664V176.012H378.659C378.321 176.208 377.977 176.4 377.628 176.586C377.441 176.688 377.249 176.79 377.057 176.888C376.622 177.124 376.183 177.351 375.743 177.568C375.586 177.643 375.424 177.721 375.268 177.799C375.136 177.859 375.005 177.925 374.874 177.985C374.833 178.005 374.798 178.02 374.763 178.041C374.651 178.092 374.545 178.143 374.434 178.194C374.313 178.249 374.191 178.304 374.076 178.36C373.939 178.42 373.808 178.481 373.671 178.536C373.166 178.762 372.655 178.979 372.145 179.185C370.316 179.932 368.447 180.578 366.546 181.119C366.46 181.144 366.369 181.17 366.278 181.194C365.464 181.42 364.645 181.627 363.821 181.813C362.381 182.145 360.927 182.417 359.46 182.629H359.45L358.924 182.705C358.908 182.705 358.894 182.71 358.873 182.71C358.873 182.715 358.873 182.715 358.868 182.71L358.287 182.785C358.273 182.789 358.26 182.791 358.246 182.79C358.064 182.815 357.877 182.836 357.695 182.856L357.104 182.916L356.649 182.961C356.636 182.966 356.623 182.967 356.609 182.966C356.472 182.976 356.336 182.991 356.199 183.001H356.179L355.826 183.032C354.416 183.142 353.001 183.193 351.566 183.193C350.014 183.193 348.473 183.132 346.952 183.001H346.936L345.961 182.911C345.875 182.9 345.794 182.895 345.708 182.886C345.693 182.886 345.673 182.881 345.657 182.881C345.632 182.875 345.606 182.875 345.576 182.87C345.562 182.871 345.549 182.869 345.536 182.865C345.425 182.855 345.314 182.84 345.197 182.83L344.819 182.785C344.692 182.769 344.566 182.749 344.44 182.734C344.409 182.729 344.384 182.729 344.354 182.723C344.263 182.713 344.172 182.698 344.081 182.683L343.949 182.668C343.858 182.653 343.772 182.643 343.682 182.628H343.676C340.903 182.23 338.166 181.617 335.49 180.792C335.349 180.746 335.207 180.706 335.066 180.661C335.06 180.661 335.055 180.655 335.05 180.655C335.01 180.64 334.964 180.631 334.924 180.615C334.545 180.494 334.171 180.368 333.797 180.238C333.282 180.066 332.774 179.881 332.262 179.689C332.125 179.634 331.989 179.584 331.852 179.528C331.574 179.422 331.301 179.312 331.029 179.201C330.564 179.014 330.099 178.818 329.639 178.617C329.209 178.425 328.785 178.234 328.359 178.033C328.349 178.028 328.334 178.028 328.324 178.017C328.227 177.972 328.132 177.927 328.041 177.881H328.035C325.708 176.769 323.464 175.492 321.319 174.06C320.632 173.602 319.954 173.129 319.287 172.64C318.752 172.242 318.226 171.839 317.7 171.427C315.108 169.372 312.707 167.087 310.529 164.6V164.595C310.373 164.424 310.226 164.248 310.075 164.071C310.05 164.046 310.029 164.02 310.009 164.001C309.913 163.885 309.822 163.775 309.726 163.664V163.659C309.6 163.513 309.473 163.362 309.352 163.211C309.322 163.175 309.296 163.145 309.271 163.115V163.11C309.169 162.989 309.074 162.868 308.973 162.742C308.922 162.682 308.877 162.621 308.827 162.561V162.556C308.529 162.184 308.241 161.811 307.952 161.428C307.877 161.326 307.799 161.224 307.72 161.116C307.356 160.628 307.003 160.129 306.659 159.631V159.626C306.527 159.44 306.403 159.249 306.27 159.062L305.891 158.488C305.764 158.287 305.635 158.09 305.507 157.889L305.492 157.859C305.365 157.668 305.239 157.466 305.117 157.27C305.021 157.109 304.925 156.953 304.829 156.797C304.769 156.691 304.703 156.585 304.642 156.474C304.619 156.44 304.597 156.405 304.577 156.369L304.152 155.629C303.986 155.342 303.824 155.05 303.662 154.758C303.602 154.637 303.536 154.516 303.47 154.395C303.445 154.355 303.425 154.315 303.405 154.274C303.329 154.134 303.251 153.987 303.182 153.841C303.114 153.695 303.029 153.554 302.955 153.408C302.881 153.262 302.809 153.121 302.738 152.975C302.682 152.865 302.632 152.754 302.576 152.643C302.572 152.634 302.567 152.625 302.561 152.618C302.536 152.562 302.51 152.512 302.49 152.462C302.484 152.454 302.479 152.446 302.475 152.437C302.419 152.326 302.369 152.21 302.313 152.1C302.243 151.954 302.176 151.803 302.108 151.657C302.063 151.555 302.012 151.453 301.967 151.344C301.902 151.199 301.83 151.052 301.77 150.901C301.699 150.748 301.633 150.599 301.568 150.442C301.549 150.405 301.532 150.366 301.517 150.327C301.481 150.256 301.456 150.186 301.425 150.115C301.345 149.929 301.264 149.738 301.188 149.551C301.097 149.339 301.011 149.123 300.932 148.911C300.851 148.715 300.775 148.514 300.7 148.312L300.669 148.242C299.492 145.152 298.599 141.962 298.001 138.712V138.707C297.664 136.85 297.423 134.978 297.278 133.097C297.273 132.991 297.263 132.893 297.259 132.791C297.167 131.516 297.127 130.241 297.127 128.955C297.127 128.386 297.137 127.822 297.152 127.258C297.505 115.466 301.726 104.113 309.169 94.9377C309.331 94.7363 309.493 94.5348 309.66 94.3334C309.827 94.1319 309.998 93.9356 310.165 93.7392C315.705 87.2762 322.691 82.2003 330.562 78.9208C338.432 75.6413 346.966 74.25 355.475 74.8589C363.984 75.4679 372.23 78.0601 379.549 82.4266C386.868 86.7931 393.055 92.8117 397.61 99.9972C397.858 100.39 398.106 100.788 398.343 101.185C398.581 101.583 398.818 101.991 399.051 102.399C403.628 110.506 406.027 119.654 406.013 128.955L406.009 128.953Z" fill="#F2F2F2"/>
<path d="M372.988 99.1946C373.028 99.1874 373.068 99.1818 373.107 99.1747C372.94 99.0715 372.782 98.9534 372.637 98.8218L372.988 99.1946Z" fill="white"/>
<path d="M342.484 151.032L356.288 149.521L359.573 161.567L346.5 164.624L342.484 151.032Z" fill="#ED9DA0"/>
<path d="M345.93 154.7C354.961 154.7 362.282 147.244 362.282 138.046C362.282 128.849 354.961 121.393 345.93 121.393C336.899 121.393 329.578 128.849 329.578 138.046C329.578 147.244 336.899 154.7 345.93 154.7Z" fill="#ED9DA0"/>
<path d="M380.826 176.319C380.352 176.577 379.873 176.824 379.393 177.06C379.222 177.142 379.046 177.224 378.875 177.312C378.732 177.378 378.588 177.449 378.446 177.516C378.402 177.538 378.363 177.554 378.324 177.576C378.203 177.631 378.087 177.686 377.966 177.741C377.834 177.801 377.702 177.862 377.575 177.922C377.426 177.988 377.283 178.054 377.134 178.114C376.583 178.361 376.027 178.597 375.471 178.822C373.477 179.636 371.44 180.339 369.368 180.928C369.275 180.956 369.175 180.983 369.077 181.011C368.189 181.257 367.297 181.482 366.4 181.685C364.83 182.047 363.245 182.344 361.647 182.574H361.636L361.063 182.656C361.047 182.656 361.03 182.662 361.008 182.662C361.008 182.667 361.008 182.667 361.002 182.662L360.369 182.744C360.355 182.748 360.34 182.75 360.325 182.75C360.127 182.777 359.923 182.801 359.724 182.821L359.08 182.887L358.584 182.938C358.57 182.943 358.555 182.945 358.54 182.943C358.391 182.954 358.243 182.971 358.094 182.982H358.072L357.687 183.015C356.151 183.136 354.608 183.19 353.044 183.19C351.355 183.19 349.673 183.124 348.015 182.982H348.002L346.939 182.883C346.846 182.871 346.758 182.866 346.664 182.855C346.647 182.855 346.625 182.85 346.609 182.85C346.581 182.844 346.553 182.844 346.521 182.838C346.506 182.839 346.491 182.837 346.476 182.833C346.355 182.822 346.234 182.805 346.107 182.794L345.694 182.743C345.557 182.727 345.419 182.705 345.281 182.688C345.248 182.683 345.221 182.683 345.187 182.678C345.088 182.666 344.989 182.65 344.89 182.634L344.747 182.617C344.647 182.601 344.554 182.59 344.455 182.574H344.449C341.427 182.14 338.444 181.471 335.527 180.571C335.374 180.52 335.22 180.478 335.066 180.428C335.777 177.124 337.241 174.027 339.345 171.377C341.449 168.726 344.136 166.593 347.199 165.142C346.441 164.423 345.917 163.494 345.695 162.475C345.552 161.819 345.541 161.14 345.662 160.479C345.783 159.818 346.034 159.188 346.4 158.623C347.115 157.53 348.236 156.765 349.517 156.495L357.677 154.794C358.991 154.539 360.353 154.811 361.467 155.55C362.581 156.29 363.357 157.438 363.626 158.744C363.709 159.145 363.746 159.553 363.736 159.962C371.595 165.176 377.252 170.58 380.826 176.319Z" fill="#B6DBF6"/>
<path d="M389.686 130.824C386.907 127.594 385.585 123.31 383.363 119.643C381.141 115.977 377.274 112.694 373.189 113.548C370.374 114.136 368.197 116.612 367.097 119.371C365.998 122.131 365.79 125.175 365.597 128.156C365.665 122.029 361.612 116.089 356.03 114.132C350.448 112.175 343.768 114.358 340.263 119.283C338.733 117.869 336.735 117.065 334.648 117.021C332.562 116.977 330.532 117.698 328.943 119.046C325.805 121.84 325.111 127.155 327.418 130.719C329.726 134.284 334.722 135.61 338.389 133.634L339.685 134.822C338.956 137.364 340.371 140.367 342.749 141.325C344.678 142.101 347.401 141.972 348.124 143.988C348.629 145.397 347.686 146.901 346.683 147.984C345.68 149.066 344.49 150.184 344.369 151.683C344.188 153.943 346.532 155.527 348.664 156.004C353.805 157.154 359.508 154.782 362.47 150.263C362.527 150.176 362.589 150.089 362.657 150.002C364.319 147.884 365.53 145.451 366.217 142.852C366.903 140.252 367.051 137.54 366.65 134.882C366.483 133.838 366.65 133.061 367.374 132.813C370.497 131.743 379.25 133.986 381.901 136.016C384.552 138.046 386.672 140.728 389.221 142.887C391.771 145.046 395.025 146.712 398.265 146.123C400.86 145.653 403.068 143.778 404.553 141.512C406.037 139.246 406.892 136.609 407.658 133.986C401.916 137.289 394.062 135.906 389.686 130.824Z" fill="#2F2E41"/>
<path d="M53.4984 95.2229C53.4984 96.4468 53.5388 97.6708 53.6248 98.883C53.716 100.333 53.8726 101.773 54.0856 103.203C54.7988 108.017 56.1621 112.712 58.1384 117.163L58.4414 117.826L58.595 118.158C58.6462 118.269 58.701 118.38 58.7517 118.486C58.8223 118.631 58.8883 118.773 58.9564 118.913C59.0424 119.09 59.1284 119.266 59.219 119.442C59.2293 119.462 59.239 119.488 59.2544 119.513C59.3301 119.666 59.4008 119.809 59.4816 119.961C59.4967 119.994 59.5138 120.026 59.5328 120.057C59.6188 120.228 59.71 120.404 59.8006 120.575C59.903 120.757 59.9977 120.943 60.0985 121.124C60.3412 121.572 60.5935 122.015 60.8515 122.458C60.9273 122.589 61.0051 122.72 61.0839 122.851C61.1546 122.972 61.2252 123.093 61.301 123.214C61.3522 123.294 61.4034 123.38 61.4546 123.46C61.5355 123.597 61.6163 123.727 61.7023 123.863C61.8892 124.16 62.0812 124.457 62.2685 124.754H62.2736C62.3596 124.89 62.4503 125.026 62.5414 125.157V125.162C62.8091 125.565 63.0871 125.967 63.365 126.365C63.3662 126.365 63.3675 126.365 63.3686 126.365C63.3691 126.366 63.3691 126.368 63.3686 126.369C63.5908 126.691 63.8232 127.003 64.051 127.315V127.32C64.2046 127.517 64.349 127.718 64.501 127.915C64.6223 128.076 64.7487 128.242 64.8747 128.403C64.8998 128.438 64.9305 128.468 64.9556 128.505V128.51C64.9909 128.556 65.0262 128.596 65.0615 128.641C65.5973 129.326 66.1499 129.996 66.7191 130.65L66.8102 130.756C66.8404 130.791 66.8758 130.826 66.9065 130.866C66.9577 130.922 67.0027 130.977 67.0529 131.033C67.103 131.088 67.1491 131.143 67.1993 131.199C70.1673 134.53 73.5326 137.487 77.2205 140.004C77.711 140.341 78.2111 140.667 78.7113 140.986C78.8377 141.066 78.9641 141.147 79.0901 141.222C79.1254 141.247 79.1658 141.273 79.2012 141.298C79.2718 141.338 79.3378 141.379 79.4059 141.424C79.474 141.469 79.5375 141.505 79.6081 141.545C79.8759 141.711 80.1487 141.872 80.4216 142.033C80.4871 142.074 80.5582 142.114 80.6263 142.154C80.6944 142.194 80.763 142.23 80.8311 142.27C80.8311 142.275 80.8311 142.275 80.8362 142.275H80.8413V142.28H80.8464C81.185 142.476 81.5287 142.668 81.8775 142.854C82.0643 142.956 82.2563 143.058 82.4487 143.156C82.8834 143.392 83.3231 143.619 83.7628 143.836C83.9195 143.911 84.0812 143.989 84.2379 144.067C84.3695 144.127 84.5005 144.193 84.6321 144.253C84.6725 144.273 84.7078 144.288 84.7432 144.309C84.8542 144.36 84.9602 144.411 85.0718 144.462C85.1931 144.517 85.3145 144.573 85.4301 144.628C85.5668 144.688 85.6979 144.749 85.8345 144.805C86.3398 145.031 86.8502 145.248 87.3606 145.454C89.1897 146.201 91.059 146.846 92.9599 147.387C93.0459 147.412 93.1365 147.438 93.2276 147.463C94.0412 147.689 94.8603 147.895 95.6848 148.082C97.125 148.414 98.5787 148.686 100.046 148.898H100.056L100.582 148.973C100.597 148.973 100.612 148.978 100.633 148.978C100.633 148.983 100.633 148.983 100.638 148.978L101.219 149.054C101.232 149.058 101.246 149.059 101.26 149.059C101.441 149.084 101.629 149.104 101.81 149.124L102.402 149.184L102.856 149.23C102.869 149.234 102.883 149.236 102.897 149.235C103.033 149.245 103.17 149.26 103.306 149.27H103.326L103.68 149.3C105.09 149.411 106.505 149.461 107.94 149.461C109.492 149.461 111.033 149.401 112.554 149.27H112.569L113.545 149.179C113.631 149.169 113.711 149.164 113.797 149.154C113.813 149.154 113.833 149.149 113.849 149.149C113.874 149.144 113.9 149.144 113.93 149.139C113.943 149.139 113.957 149.138 113.97 149.134C114.081 149.124 114.192 149.109 114.308 149.099L114.687 149.053C114.814 149.038 114.94 149.018 115.066 149.002C115.096 148.997 115.122 148.997 115.152 148.992C115.243 148.982 115.334 148.967 115.425 148.952L115.556 148.936C115.647 148.921 115.733 148.911 115.824 148.896H115.829C118.602 148.499 121.339 147.885 124.016 147.06C124.157 147.015 124.299 146.975 124.44 146.929C124.445 146.929 124.45 146.924 124.455 146.924C124.496 146.909 124.542 146.899 124.582 146.884C124.961 146.763 125.335 146.637 125.708 146.506C126.224 146.335 126.732 146.149 127.244 145.958C127.381 145.902 127.517 145.852 127.653 145.796C127.931 145.691 128.204 145.58 128.477 145.469C128.942 145.283 129.407 145.087 129.867 144.885C130.296 144.694 130.721 144.503 131.147 144.301C131.157 144.296 131.172 144.296 131.182 144.286C131.278 144.241 131.374 144.195 131.465 144.15H131.47C133.798 143.037 136.042 141.76 138.187 140.328C138.874 139.871 139.551 139.397 140.218 138.909C140.753 138.511 141.279 138.108 141.805 137.695C144.398 135.641 146.798 133.356 148.976 130.869V130.864C149.132 130.692 149.279 130.516 149.43 130.34C149.455 130.315 149.476 130.289 149.496 130.27C149.592 130.154 149.683 130.043 149.779 129.933V129.927C149.905 129.782 150.032 129.631 150.153 129.479C150.183 129.444 150.208 129.414 150.234 129.383V129.378C150.336 129.257 150.431 129.136 150.531 129.011C150.583 128.95 150.628 128.89 150.678 128.829V128.824C150.976 128.452 151.264 128.079 151.552 127.697C151.628 127.595 151.706 127.493 151.785 127.385C152.149 126.896 152.501 126.398 152.846 125.9V125.895C152.977 125.708 153.102 125.517 153.235 125.331L153.614 124.757C153.74 124.555 153.87 124.359 153.998 124.158L154.013 124.127C154.139 123.936 154.266 123.735 154.387 123.538C154.483 123.377 154.579 123.221 154.675 123.065C154.735 122.96 154.801 122.854 154.862 122.743C154.885 122.709 154.907 122.674 154.927 122.637L155.352 121.897C155.519 121.61 155.68 121.319 155.842 121.026C155.902 120.905 155.969 120.785 156.034 120.664C156.059 120.623 156.08 120.583 156.1 120.543C156.175 120.402 156.253 120.256 156.322 120.11C156.39 119.964 156.475 119.823 156.549 119.677C156.623 119.531 156.695 119.39 156.766 119.244C156.822 119.133 156.872 119.023 156.928 118.911C156.932 118.902 156.937 118.894 156.943 118.886C156.968 118.831 156.994 118.781 157.014 118.73C157.02 118.723 157.025 118.714 157.029 118.705C157.085 118.595 157.135 118.479 157.191 118.368C157.262 118.222 157.328 118.071 157.396 117.925C157.441 117.823 157.492 117.721 157.537 117.613C157.603 117.467 157.674 117.321 157.734 117.17C157.805 117.017 157.871 116.868 157.936 116.711C157.955 116.673 157.973 116.635 157.988 116.595C158.023 116.525 158.048 116.454 158.079 116.383C158.16 116.197 158.24 116.006 158.316 115.819C158.407 115.608 158.493 115.392 158.572 115.18C158.653 114.984 158.729 114.782 158.805 114.581L158.835 114.51C160.012 111.421 160.905 108.231 161.503 104.98V104.975C161.84 103.119 162.081 101.246 162.226 99.3654C162.231 99.2599 162.241 99.1614 162.246 99.0594C162.337 97.7845 162.378 96.5095 162.378 95.2234C162.378 94.6542 162.367 94.0907 162.353 93.5267C162 81.7344 157.779 70.382 150.335 61.2062C150.174 61.0048 150.012 60.8034 149.845 60.6019C149.678 60.4005 149.507 60.2041 149.34 60.0078C143.8 53.5447 136.813 48.4689 128.943 45.1894C121.073 41.9099 112.539 40.5185 104.03 41.1275C95.5209 41.7364 87.2745 44.3286 79.9555 48.6951C72.6366 53.0616 66.4499 59.0802 61.8943 66.2657C61.6465 66.6584 61.3993 67.0562 61.1618 67.454C60.9242 67.8518 60.6867 68.2592 60.4543 68.6672C55.8768 76.7743 53.4786 85.9218 53.4922 95.2234L53.4984 95.2229Z" fill="#F2F2F2"/>
<path d="M86.5197 65.4641C86.4797 65.457 86.4398 65.4514 86.4004 65.4442C86.5676 65.341 86.7251 65.2229 86.8708 65.0913L86.5197 65.4641Z" fill="white"/>
<path d="M105.074 109.75H117.769L117.229 126.131L102.859 125.01L105.074 109.75Z" fill="#9E616A"/>
<path d="M82.4551 142.709C82.9506 142.982 83.4513 143.242 83.9524 143.492C84.1311 143.578 84.3154 143.665 84.494 143.758C84.644 143.828 84.7935 143.903 84.9435 143.972C84.9896 143.995 85.03 144.013 85.0699 144.036C85.1969 144.094 85.3177 144.152 85.4442 144.21C85.5824 144.274 85.7206 144.338 85.8537 144.401C86.0073 144.471 86.1608 144.541 86.3144 144.605C86.8903 144.866 87.4724 145.115 88.0549 145.352C90.1389 146.212 92.2694 146.954 94.4365 147.577C94.5342 147.606 94.6382 147.635 94.7436 147.664C95.6709 147.924 96.6039 148.162 97.5428 148.378C99.1843 148.76 100.841 149.073 102.513 149.316H102.525L103.124 149.403C103.141 149.403 103.158 149.408 103.182 149.408C103.182 149.414 103.182 149.414 103.187 149.408L103.85 149.495C103.865 149.499 103.88 149.501 103.896 149.501C104.103 149.53 104.316 149.552 104.523 149.576L105.197 149.645L105.716 149.696C105.73 149.702 105.746 149.703 105.762 149.702C105.915 149.714 106.073 149.731 106.228 149.743H106.251L106.654 149.778C108.261 149.905 109.874 149.963 111.51 149.963C113.278 149.963 115.035 149.893 116.768 149.742H116.786L117.897 149.64C117.995 149.629 118.087 149.623 118.185 149.611C118.203 149.611 118.226 149.606 118.243 149.606C118.272 149.6 118.301 149.6 118.335 149.594C118.351 149.595 118.366 149.593 118.381 149.588C118.508 149.577 118.637 149.559 118.767 149.548L119.199 149.497C119.343 149.48 119.488 149.456 119.631 149.439C119.666 149.433 119.695 149.433 119.729 149.427C119.832 149.415 119.934 149.398 120.04 149.381L120.19 149.363C120.293 149.346 120.392 149.334 120.498 149.317H120.503C123.664 148.858 126.782 148.149 129.83 147.199C129.992 147.148 130.153 147.1 130.314 147.046C129.579 143.568 128.053 140.304 125.853 137.506C123.653 134.708 120.838 132.45 117.625 130.906C118.419 130.144 118.967 129.164 119.198 128.09C119.5 126.691 119.235 125.229 118.461 124.024C118.093 123.454 117.615 122.962 117.056 122.576C116.496 122.19 115.866 121.918 115.201 121.776L106.665 119.98C105.285 119.715 103.856 120.005 102.691 120.787C101.525 121.568 100.717 122.778 100.445 124.152C100.358 124.575 100.319 125.006 100.33 125.438C92.1083 130.941 86.1931 136.65 82.4551 142.709Z" fill="#B6DBF6"/>
<path d="M108.866 119.064C118.934 119.064 127.095 110.934 127.095 100.904C127.095 90.8743 118.934 82.7437 108.866 82.7437C98.7983 82.7437 90.6367 90.8743 90.6367 100.904C90.6367 110.934 98.7983 119.064 108.866 119.064Z" fill="#9E616A"/>
<path d="M106.276 118.094C101.712 119.322 96.6803 117.69 93.1195 114.592C89.5586 111.495 87.3302 107.108 86.0463 102.575C85.1059 99.2558 84.6606 95.5712 86.1441 92.4548C87.6276 89.3383 91.6216 87.2361 94.7013 88.8099C92.8011 86.6043 93.7502 82.9559 95.9698 81.0695C98.1895 79.1831 101.237 78.6415 104.139 78.3457C108.352 77.9163 112.703 77.8683 116.712 79.2279C120.721 80.5875 124.363 83.5597 125.619 87.5916C126.901 88.1859 128.344 88.3401 129.722 88.0301C131.101 87.72 132.338 86.9631 133.238 85.8781C133.471 87.1244 133.285 88.4123 132.708 89.5425C132.132 90.6726 131.197 91.5819 130.05 92.1294L136.193 90.1456C137.249 92.3732 135.398 95.1296 133.031 95.8431C130.664 96.5565 128.109 95.7768 125.864 94.7461C123.619 93.7154 121.442 92.4129 119.002 92.0111C116.562 91.6092 113.696 92.39 112.568 94.5819C111.977 95.7298 111.946 97.0747 111.603 98.3185C111.26 99.5623 110.391 100.853 109.099 100.955C108.284 101.019 107.485 100.586 106.671 100.675C106.172 100.773 105.713 101.014 105.349 101.368C104.986 101.722 104.733 102.174 104.624 102.669C104.421 103.662 104.419 104.684 104.617 105.678L106.177 117.561L106.276 118.094Z" fill="#2F2E41"/>
<path d="M5.38029 162.937C6.09561 162.815 6.82917 162.855 7.52689 163.054C8.2246 163.253 8.86867 163.605 9.41163 164.084L9.44132 164.111L9.46896 164.087C9.98695 163.633 10.5961 163.295 11.2557 163.095C11.9153 162.894 12.6102 162.837 13.294 162.925L13.4926 162.954C14.3544 163.102 15.16 163.48 15.8239 164.047C16.4879 164.614 16.9856 165.349 17.2642 166.175C17.5429 167.001 17.5921 167.887 17.4068 168.738C17.2214 169.589 16.8084 170.375 16.2114 171.012L16.066 171.161L16.0271 171.194L10.0039 177.137C9.86492 177.274 9.68082 177.356 9.4857 177.368C9.29058 177.38 9.09768 177.322 8.94271 177.203L8.86695 177.137L2.81355 171.161C2.17193 170.539 1.71559 169.753 1.49511 168.889C1.27462 168.024 1.29858 167.116 1.56433 166.265C1.83008 165.413 2.32725 164.651 3.00078 164.064C3.6743 163.477 4.49788 163.087 5.38029 162.937Z" fill="#B6DBF6"/>
<path d="M280.135 111.398C279.516 111.398 278.92 111.163 278.47 110.739C278.02 110.316 277.749 109.737 277.714 109.121L277.707 108.978V101.358L285.344 106.431L285.437 106.482C285.547 106.537 285.67 106.566 285.793 106.566C285.917 106.566 286.039 106.537 286.149 106.482L286.242 106.431L293.879 101.358V108.978C293.879 109.595 293.643 110.188 293.218 110.637C292.793 111.085 292.212 111.355 291.594 111.39L291.451 111.398H280.135ZM278.067 99.6607C278.27 99.3322 278.548 99.0568 278.88 98.8579C279.211 98.6589 279.586 98.5421 279.972 98.5172L280.135 98.5103H291.45C291.865 98.5103 292.272 98.6161 292.634 98.8175C292.996 99.0189 293.3 99.3091 293.517 99.6607L285.791 104.789L278.067 99.6607Z" fill="#B6DBF6"/>
<path d="M86.232 195.278C87.0898 195.278 87.9125 195.618 88.519 196.222C89.1256 196.826 89.4663 197.646 89.4663 198.5V204.944C89.4663 205.799 89.1256 206.618 88.519 207.223C87.9125 207.827 87.0898 208.166 86.232 208.166H82.4121L78.562 210.468C78.4461 210.537 78.3145 210.577 78.1793 210.582C78.0441 210.588 77.9097 210.559 77.7884 210.5C77.667 210.44 77.5626 210.351 77.4848 210.241C77.4069 210.131 77.358 210.003 77.3426 209.869L77.338 209.777V208.166H76.5292C75.6996 208.166 74.9017 207.849 74.3005 207.279C73.6993 206.71 73.3408 205.932 73.299 205.106L73.2949 204.944V198.5C73.2949 197.646 73.6357 196.826 74.2422 196.222C74.8488 195.618 75.6714 195.278 76.5292 195.278H86.232ZM82.9978 202.527H78.1463C77.9319 202.527 77.7262 202.612 77.5746 202.763C77.423 202.914 77.3378 203.119 77.3378 203.333C77.3378 203.547 77.423 203.751 77.5746 203.903C77.7262 204.054 77.9319 204.138 78.1463 204.138H82.9978C83.2122 204.138 83.4179 204.054 83.5695 203.903C83.7211 203.751 83.8063 203.547 83.8063 203.333C83.8063 203.119 83.7211 202.914 83.5695 202.763C83.4179 202.612 83.2122 202.527 82.9978 202.527ZM84.6149 199.307H78.1463C77.9319 199.307 77.7262 199.392 77.5746 199.543C77.423 199.694 77.3378 199.899 77.3378 200.112C77.3378 200.326 77.423 200.531 77.5746 200.682C77.7262 200.833 77.9319 200.918 78.1463 200.918H84.6149C84.8294 200.918 85.035 200.833 85.1867 200.682C85.3383 200.531 85.4235 200.326 85.4235 200.112C85.4235 199.899 85.3383 199.694 85.1867 199.543C85.035 199.392 84.8294 199.307 84.6149 199.307Z" fill="#B6DBF6"/>
<path d="M78.1192 170.119C80.7836 170.119 82.9435 167.968 82.9435 165.313C82.9435 162.659 80.7836 160.507 78.1192 160.507C75.4548 160.507 73.2949 162.659 73.2949 165.313C73.2949 167.968 75.4548 170.119 78.1192 170.119Z" fill="#E6E6E6"/>
</g>
<defs>
<clipPath id="clip0_37178_79389">
<rect width="409" height="302" fill="white"/>
</clipPath>
</defs>
</svg>
